<?xml version="1.0" encoding="UTF-8" standalone="no"?>
<!DOCTYPE svg PUBLIC "-//W3C//DTD SVG 1.1//EN"
"http://www.w3.org/Graphics/SVG/1.1/DTD/svg11.dtd">


<!-- Page 1 -->
<svg x="0" y="0" width="841" height="1580" viewBox="0 0 841 1580" version="1.1" xmlns="http://www.w3.org/2000/svg" xmlns:xlink="http://www.w3.org/1999/xlink"
style="display: block;margin-left: auto;margin-right: auto;">
<defs>

<style type="text/css"><![CDATA[

.g1_1{
fill: #FFFFFF;
}
.g2_1{
fill: none;
stroke: #737373;
stroke-width: 1.4025;
stroke-linecap: butt;
stroke-linejoin: miter;
}
.g3_1{
fill: none;
stroke: #B3B3B3;
stroke-width: 1.4025;
stroke-linecap: butt;
stroke-linejoin: miter;
}

.s1_1{
font-size: 16.50px;
font-family: Arial-BoldMT_3u;
fill: #000000;
}
.s2_1{
font-size: 13.20px;
font-family: PingFangTC-Semibold_7r;
fill: #000000;
}
.s3_1{
font-size: 11.55px;
font-family: PingFangTC-Semibold_7r;
fill: #000000;
}
.s4_1{
font-size: 11.55px;
font-family: Arial-BoldMT_3u;
fill: #000000;
}

]]></style>

</defs>
<path d="M0,0
L0,1580
L841,1580
L841,0 Z " 
fill="#FFFFFF" stroke="none" />
<path d="M0,1580.7l841.5,0L841.5,0L0,0L0,1580.7Z" class="g1_1" />
<path d="M89.1,790.4c24.8,0,16.5,-557.7,41.3,-557.7l59.4,0" class="g2_1" />
<path d="M189.8,232.7c24.7,0,16.5,-198.1,41.2,-198.1l122.7,0" class="g3_1" />
<path d="M189.8,232.7c24.7,0,16.5,-173.3,41.2,-173.3l180.6,0" class="g3_1" />
<path d="M189.8,232.7c24.7,0,16.5,-148.5,41.2,-148.5l102.8,0" class="g3_1" />
<path d="M189.8,232.7c24.7,0,16.5,-123.8,41.2,-123.8l113.1,0" class="g3_1" />
<path d="M189.8,232.7c24.7,0,16.5,-99.1,41.2,-99.1l128.2,0" class="g3_1" />
<path d="M189.8,232.7c24.7,0,16.5,-74.3,41.2,-74.3l83.6,0" class="g3_1" />
<path d="M189.8,232.7c24.7,0,16.5,-49.5,41.2,-49.5l94.5,0" class="g3_1" />
<path d="M189.8,232.7c24.7,0,16.5,-24.8,41.2,-24.8l97,0" class="g3_1" />
<path d="M189.8,232.7c24.7,0,16.5,0,41.2,0l81,0" class="g3_1" />
<path d="M189.8,232.7c24.7,0,16.5,24.7,41.2,24.7l76.2,0" class="g3_1" />
<path d="M189.8,232.7c24.7,0,16.5,49.4,41.2,49.4l90.9,0" class="g3_1" />
<path d="M189.8,232.7c24.7,0,16.5,74.2,41.2,74.2l160.6,0" class="g3_1" />
<path d="M189.8,232.7c24.7,0,16.5,99,41.2,99l85.5,0" class="g3_1" />
<path d="M189.8,232.7c24.7,0,16.5,123.7,41.2,123.7l79.1,0" class="g3_1" />
<path d="M189.8,232.7c24.7,0,16.5,148.4,41.2,148.4l91.3,0" class="g3_1" />
<path d="M189.8,232.7c24.7,0,16.5,173.2,41.2,173.2l98.7,0" class="g3_1" />
<path d="M189.8,232.7c24.7,0,16.5,198,41.2,198l172.1,0" class="g3_1" />
<path d="M89.1,790.4c24.8,0,16.5,-231.1,41.3,-231.1l76.3,0" class="g2_1" />
<path d="M206.7,559.3c24.7,0,16.5,-98.9,41.2,-98.9l119.8,0" class="g3_1" />
<path d="M206.7,559.3c24.7,0,16.5,-74.2,41.2,-74.2l85.8,0" class="g3_1" />
<path d="M206.7,559.3c24.7,0,16.5,-49.4,41.2,-49.4l56.6,0" class="g3_1" />
<path d="M206.7,559.3c24.7,0,16.5,-24.7,41.2,-24.7l65.6,0" class="g3_1" />
<path d="M206.7,559.3c24.7,0,16.5,0,41.2,0l284.4,0" class="g3_1" />
<path d="M206.7,559.3c24.7,0,16.5,24.8,41.2,24.8l105.4,0" class="g3_1" />
<path d="M206.7,559.3c24.7,0,16.5,49.6,41.2,49.6l124.6,0" class="g3_1" />
<path d="M206.7,559.3c24.7,0,16.5,74.3,41.2,74.3l90,0" class="g3_1" />
<path d="M206.7,559.3c24.7,0,16.5,99,41.2,99l184.9,0" class="g3_1" />
<path d="M89.1,790.4c24.8,0,16.5,-52.8,41.3,-52.8l99,0" class="g2_1" />
<path d="M229.4,737.6c24.7,0,16.5,-49.6,41.2,-49.6l225.7,0" class="g3_1" />
<path d="M229.4,737.6c24.7,0,16.5,-24.8,41.2,-24.8l189.4,0" class="g3_1" />
<path d="M229.4,737.6c24.7,0,16.5,0,41.2,0l236,0" class="g3_1" />
<path d="M229.4,737.6c24.7,0,16.5,24.7,41.2,24.7l95.8,0" class="g3_1" />
<path d="M229.4,737.6c24.7,0,16.5,49.5,41.2,49.5l243.4,0" class="g3_1" />
<path d="M89.1,790.4c24.8,0,16.5,113,41.3,113l79.9,0" class="g2_1" />
<path d="M210.3,903.4c24.8,0,16.5,-86.6,41.3,-86.6l66.8,0" class="g3_1" />
<path d="M210.3,903.4c24.8,0,16.5,-61.9,41.3,-61.9l26.4,0" class="g3_1" />
<path d="M210.3,903.4c24.8,0,16.5,-37.1,41.3,-37.1l32.2,0" class="g3_1" />
<path d="M210.3,903.4c24.8,0,16.5,-12.4,41.3,-12.4l32.2,0" class="g3_1" />
<path d="M210.3,903.4c24.8,0,16.5,12.4,41.3,12.4l26.4,0" class="g3_1" />
<path d="M210.3,903.4c24.8,0,16.5,37.1,41.3,37.1l26.4,0" class="g3_1" />
<path d="M210.3,903.4c24.8,0,16.5,61.9,41.3,61.9l66.8,0" class="g3_1" />
<path d="M210.3,903.4c24.8,0,16.5,86.6,41.3,86.6l37.9,0" class="g3_1" />
<path d="M89.1,790.4c24.8,0,16.5,439.7,41.3,439.7l125.4,0" class="g2_1" />
<path d="M255.8,1230.1c24.8,0,16.5,-210.4,41.3,-210.4l107.7,0" class="g3_1" />
<path d="M255.8,1230.1c24.8,0,16.5,-185.6,41.3,-185.6l78.6,0" class="g3_1" />
<path d="M255.8,1230.1c24.8,0,16.5,-160.9,41.3,-160.9l80,0" class="g3_1" />
<path d="M255.8,1230.1c24.8,0,16.5,-136.1,41.3,-136.1l95.7,0" class="g3_1" />
<path d="M255.8,1230.1c24.8,0,16.5,-111.4,41.3,-111.4l195.2,0" class="g3_1" />
<path d="M255.8,1230.1c24.8,0,16.5,-86.6,41.3,-86.6l146.7,0" class="g3_1" />
<path d="M255.8,1230.1c24.8,0,16.5,-61.9,41.3,-61.9l127.1,0" class="g3_1" />
<path d="M255.8,1230.1c24.8,0,16.5,-37.1,41.3,-37.1l160.8,0" class="g3_1" />
<path d="M255.8,1230.1c24.8,0,16.5,-12.4,41.3,-12.4l243.3,0" class="g3_1" />
<path d="M255.8,1230.1c24.8,0,16.5,12.4,41.3,12.4l246.1,0" class="g3_1" />
<path d="M255.8,1230.1c24.8,0,16.5,37.1,41.3,37.1l108.2,0" class="g3_1" />
<path d="M255.8,1230.1c24.8,0,16.5,61.9,41.3,61.9l84.8,0" class="g3_1" />
<path d="M255.8,1230.1c24.8,0,16.5,86.6,41.3,86.6l140.9,0" class="g3_1" />
<path d="M255.8,1230.1c24.8,0,16.5,111.4,41.3,111.4l227.5,0" class="g3_1" />
<path d="M255.8,1230.1c24.8,0,16.5,136.1,41.3,136.1l95.4,0" class="g3_1" />
<path d="M255.8,1230.1c24.8,0,16.5,160.9,41.3,160.9l223.1,0" class="g3_1" />
<path d="M255.8,1230.1c24.8,0,16.5,185.6,41.3,185.6l110.1,0" class="g3_1" />
<path d="M255.8,1230.1c24.8,0,16.5,210.4,41.3,210.4l107.9,0" class="g3_1" />
<path d="M89.1,790.4c24.8,0,16.5,678.1,41.3,678.1l178.2,0" class="g2_1" />
<path d="M308.6,1468.5c24.8,0,16.5,0,41.3,0l213.4,0" class="g3_1" />
<path d="M89.1,790.4c24.8,0,16.5,730.9,41.3,730.9l59.4,0" class="g2_1" />
<path d="M189.8,1521.3c24.8,0,16.5,-24.7,41.3,-24.7l89.6,0" class="g3_1" />
<path d="M189.8,1521.3c24.8,0,16.5,0,41.3,0l105.9,0" class="g3_1" />
<path d="M189.8,1521.3c24.8,0,16.5,24.8,41.3,24.8l85.6,0" class="g3_1" />
<path d="M25.6,780.2l62.7,0l0,20.3l-62.7,0Z" class="g1_1" />
<text 
x="28" 
y="795" 
dx="0,0,0,0,0,0,0" 
class="s1_1"
>sklearn</text>

<path d="M131.2,222.7l57.8,0l0,19.9l-57.8,0Z" class="g1_1" />
<text 
x="133" 
y="237" 
dx="0,0,0,0" 
class="s2_1"
>监督学习</text>

<path d="M231.9,25.6l243.7,0l0,18.1l-243.7,0Z" class="g1_1" />
<text 
x="234" 
y="38" 
dx="0,0,0,0,0,0,0" 
class="s3_1"
>广义线性模型（</text>

<text 
x="315" 
y="38" 
dx="0,0,0,0,0,0,0,0,0,0,0,0,0,0,0,0,0,0,0,0,0,0,0,0,0" 
class="s4_1"
>Generalized Linear Models</text>

<text 
x="461" 
y="38" 
dx="0" 
class="s3_1"
>）</text>

<path d="M231.9,50.3l359.4,0l0,18.2l-359.4,0Z" class="g1_1" />
<text 
x="234" 
y="63" 
dx="0,0,0,0,0,0,0,0,0" 
class="s3_1"
>线性二次判别分析（</text>

<text 
x="338" 
y="63" 
dx="0,0,0,0,0,0,0,0,0,0,0,0,0,0,0,0,0,0,0,0,0,0,0,0,0,0,0,0,0,0,0,0,0,0,-0.4,0,0,0,0,0,0,0" 
class="s4_1"
>Linear and Quadratic Discriminant Analysis</text>

<text 
x="577" 
y="63" 
dx="0" 
class="s3_1"
>）</text>

<path d="M231.9,75.1l203.9,0l0,18.1l-203.9,0Z" class="g1_1" />
<text 
x="234" 
y="88" 
dx="0,0,0,0,0" 
class="s3_1"
>核岭回归（</text>

<text 
x="292" 
y="88" 
dx="0,0,0,0,0,0,0,0,0,0,0,0,0,0,0,0,0,0,0,0,0,0,0" 
class="s4_1"
>Kernel ridge regression</text>

<text 
x="421" 
y="88" 
dx="0" 
class="s3_1"
>）</text>

<path d="M231.9,99.8l224.4,0l0,18.2l-224.4,0Z" class="g1_1" />
<text 
x="234" 
y="113" 
dx="0,0,0,0,0,0" 
class="s3_1"
>支持向量机（</text>

<text 
x="303" 
y="113" 
dx="0,0,0,0,0,0,0,0,0,-0.6,0,0,0,0,0,0,0,0,0,0,0,0,0" 
class="s4_1"
>Support Vector Machines</text>

<text 
x="442" 
y="113" 
dx="0" 
class="s3_1"
>）</text>

<path d="M231.9,124.6l254.6,0l0,18.1l-254.6,0Z" class="g1_1" />
<text 
x="234" 
y="137" 
dx="0,0,0,0,0,0,0" 
class="s3_1"
>随机梯度下降（</text>

<text 
x="315" 
y="137" 
dx="0,0,0,0,0,0,0,0,0,0,0,0,0,0,0,0,0,0,0,0,0,0,0,0,0,0,0" 
class="s4_1"
>Stochastic Gradient Descent</text>

<text 
x="472" 
y="137" 
dx="0" 
class="s3_1"
>）</text>

<path d="M231.9,149.3l165.4,0l0,18.2l-165.4,0Z" class="g1_1" />
<text 
x="234" 
y="162" 
dx="0,0,0,0" 
class="s3_1"
>最近邻（</text>

<text 
x="280" 
y="162" 
dx="0,0,0,0,0,0,0,0,0,0,0,0,0,0,0,0,0" 
class="s4_1"
>Nearest Neighbors</text>

<text 
x="383" 
y="162" 
dx="0" 
class="s3_1"
>）</text>

<path d="M231.9,174.1l187.2,0l0,18.1l-187.2,0Z" class="g1_1" />
<text 
x="234" 
y="187" 
dx="0,0,0,0,0" 
class="s3_1"
>高斯过程（</text>

<text 
x="292" 
y="187" 
dx="0,0,0,0,0,0,0,0,0,0,0,0,0,0,0,0,0,0" 
class="s4_1"
>Gaussian Processes</text>

<text 
x="405" 
y="187" 
dx="0" 
class="s3_1"
>）</text>

<path d="M231.9,198.8l192.3,0l0,18.2l-192.3,0Z" class="g1_1" />
<text 
x="234" 
y="212" 
dx="0,0,0,0,0" 
class="s3_1"
>交叉分解（</text>

<text 
x="292" 
y="212" 
dx="0,0,0,0,0,0,0,0,0,0,0,0,0,0,0,0,0,0,0" 
class="s4_1"
>Cross decomposition</text>

<text 
x="410" 
y="212" 
dx="0" 
class="s3_1"
>）</text>

<path d="M231.9,223.6l160.2,0l0,18.1l-160.2,0Z" class="g1_1" />
<text 
x="237" 
y="236" 
dx="0,0,0,0,0,0" 
class="s3_1"
>朴素贝叶斯（</text>

<text 
x="306" 
y="236" 
dx="0,0,0,0,0,0,0,0,0,0,0" 
class="s4_1"
>Naive Bayes</text>

<text 
x="374" 
y="236" 
dx="0" 
class="s3_1"
>）</text>

<path d="M231.9,248.3l150.6,0l0,18.2l-150.6,0Z" class="g1_1" />
<text 
x="237" 
y="261" 
dx="0,0,0,0" 
class="s3_1"
>决策树（</text>

<text 
x="283" 
y="261" 
dx="0,0,0,0,0,0,0,0,0,0,-0.6,0,0,0" 
class="s4_1"
>Decision Trees</text>

<text 
x="365" 
y="261" 
dx="0" 
class="s3_1"
>）</text>

<path d="M231.9,273.1l180.1,0l0,18.1l-180.1,0Z" class="g1_1" />
<text 
x="234" 
y="286" 
dx="0,0,0,0,0" 
class="s3_1"
>集成方法（</text>

<text 
x="292" 
y="286" 
dx="0,0,0,0,0,0,0,0,0,0,0,0,0,0,0,0" 
class="s4_1"
>Ensemble methods</text>

<text 
x="397" 
y="286" 
dx="0" 
class="s3_1"
>）</text>

<path d="M231.9,297.8l319.4,0l0,18.2l-319.4,0Z" class="g1_1" />
<text 
x="234" 
y="311" 
dx="0,0,0,0,0,0,0,0,0" 
class="s3_1"
>多类和多标签算法（</text>

<text 
x="338" 
y="311" 
dx="0,0,0,0,0,0,0,0,0,0,0,0,0,0,0,0,0,0,0,0,0,0,0,0,0,0,0,0,0,0,0,0,0,0,0,0" 
class="s4_1"
>Multiclass and multilabel algorithms</text>

<text 
x="537" 
y="311" 
dx="0" 
class="s3_1"
>）</text>

<path d="M231.9,322.6l169.2,0l0,18.1l-169.2,0Z" class="g1_1" />
<text 
x="234" 
y="335" 
dx="0,0,0,0,0" 
class="s3_1"
>特征选择（</text>

<text 
x="292" 
y="335" 
dx="0,0,0,0,0,0,0,0,0,0,0,0,0,0,0,0,0" 
class="s4_1"
>Feature selection</text>

<text 
x="387" 
y="335" 
dx="0" 
class="s3_1"
>）</text>

<path d="M231.9,347.3l156.4,0l0,18.2l-156.4,0Z" class="g1_1" />
<text 
x="234" 
y="360" 
dx="0,0,0,0" 
class="s3_1"
>半监督（</text>

<text 
x="280" 
y="360" 
dx="0,0,0,0,0,0,0,0,0,0,0,0,0,0,0" 
class="s4_1"
>Semi-Supervised</text>

<text 
x="374" 
y="360" 
dx="0" 
class="s3_1"
>）</text>

<path d="M231.9,372.1l180.8,0l0,18.1l-180.8,0Z" class="g1_1" />
<text 
x="234" 
y="385" 
dx="0,0,0,0,0" 
class="s3_1"
>保序回归（</text>

<text 
x="292" 
y="385" 
dx="0,0,0,0,0,0,0,0,0,0,0,0,0,0,0,0,0,0,0" 
class="s4_1"
>Isotonic regression</text>

<text 
x="398" 
y="385" 
dx="0" 
class="s3_1"
>）</text>

<path d="M231.9,396.8l195.5,0l0,18.2l-195.5,0Z" class="g1_1" />
<text 
x="234" 
y="410" 
dx="0,0,0,0,0" 
class="s3_1"
>概率校准（</text>

<text 
x="292" 
y="410" 
dx="0,0,0,0,0,0,0,0,0,0,0,0,0,0,0,0,0,0,0,0,0,0,0" 
class="s4_1"
>Probability calibration</text>

<text 
x="413" 
y="410" 
dx="0" 
class="s3_1"
>）</text>

<path d="M231.9,421.6l342.5,0l0,18.1l-342.5,0Z" class="g1_1" />
<text 
x="234" 
y="434" 
dx="0,0,0,0,0,0,0,0,0,0,0" 
class="s3_1"
>神经网络模型（监督）（</text>

<text 
x="361" 
y="434" 
dx="0,0,0,0,0,0,0,0,0,0,0,0,0,0,0,0,0,0,0,0,0,0,0,0,0,0,0,0,0,0,0,0,0,0" 
class="s4_1"
>Neural network models (supervised)</text>

<text 
x="560" 
y="434" 
dx="0" 
class="s3_1"
>）</text>

<path d="M131.2,549.5l74.6,0l0,19.8l-74.6,0Z" class="g1_1" />
<text 
x="135" 
y="564" 
dx="0,0,0,0,0" 
class="s2_1"
>无监督学习</text>

<path d="M248.7,451.3l238,0l0,18.1l-238,0Z" class="g1_1" />
<text 
x="251" 
y="464" 
dx="0,0,0,0,0,0,0" 
class="s3_1"
>高斯混合模型（</text>

<text 
x="332" 
y="464" 
dx="0,0,0,0,0,0,0,0,0,0,0,0,0,0,0,0,0,0,0,0,0,0,0" 
class="s4_1"
>Gaussian mixture models</text>

<text 
x="472" 
y="464" 
dx="0" 
class="s3_1"
>）</text>

<path d="M248.7,476l169.9,0l0,18.2l-169.9,0Z" class="g1_1" />
<text 
x="251" 
y="489" 
dx="0,0,0,0,0" 
class="s3_1"
>流形学习（</text>

<text 
x="308" 
y="489" 
dx="0,0,0,0,0,0,0,0,0,0,0,0,0,0,0,0,0" 
class="s4_1"
>Manifold learning</text>

<text 
x="404" 
y="489" 
dx="0" 
class="s3_1"
>）</text>

<path d="M248.7,500.8l111.5,0l0,18.1l-111.5,0Z" class="g1_1" />
<text 
x="252" 
y="513" 
dx="0,0,0" 
class="s3_1"
>聚类（</text>

<text 
x="287" 
y="513" 
dx="0,0,0,0,0,0,0,0,0,0" 
class="s4_1"
>Clustering</text>

<text 
x="344" 
y="513" 
dx="0" 
class="s3_1"
>）</text>

<path d="M248.7,525.5l129.5,0l0,18.2l-129.5,0Z" class="g1_1" />
<text 
x="251" 
y="538" 
dx="0,0,0,0" 
class="s3_1"
>双聚类（</text>

<text 
x="297" 
y="538" 
dx="0,0,0,0,0,0,0,0,0,0,0,0" 
class="s4_1"
>Biclustering</text>

<text 
x="364" 
y="538" 
dx="0" 
class="s3_1"
>）</text>

<path d="M248.7,550.3l567.2,0l0,18.1l-567.2,0Z" class="g1_1" />
<text 
x="251" 
y="563" 
dx="0,0,0,0,0,0,0,0,0,0,0,0,0,0,0" 
class="s3_1"
>分解信号分量（矩阵分解问题）（</text>

<text 
x="424" 
y="563" 
dx="0,0,0,0,0,0,0,0,0,0,0,0,0,0,0,0,0,0,0,0,0,0,0,0,0,0,0,0,0,0,0,0,0,0,0,0,0,0,0,0,0,0,0,0,0,0,0,0,0,0,0,0,0,0,0,0,0,0,0,0,0,0,0,0,0" 
class="s4_1"
>Decomposing signals in components (matrix factorization problems)</text>

<text 
x="801" 
y="563" 
dx="0" 
class="s3_1"
>）</text>

<path d="M248.7,575l209.1,0l0,18.2l-209.1,0Z" class="g1_1" />
<text 
x="251" 
y="588" 
dx="0,0,0,0,0,0" 
class="s3_1"
>协方差估计（</text>

<text 
x="320" 
y="588" 
dx="0,0,0,0,0,0,0,0,0,0,0,0,0,0,0,0,0,0,0,0,0" 
class="s4_1"
>Covariance estimation</text>

<text 
x="443" 
y="588" 
dx="0" 
class="s3_1"
>）</text>

<path d="M248.7,599.8l247.6,0l0,18.1l-247.6,0Z" class="g1_1" />
<text 
x="251" 
y="612" 
dx="0,0,0,0,0,0" 
class="s3_1"
>异常值检测（</text>

<text 
x="320" 
y="612" 
dx="0,0,0,0,0,0,0,0,0,0,0,0,0,0,0,0,0,0,0,0,0,0,0,0,0,0,0,0,0" 
class="s4_1"
>Novelty and Outlier Detection</text>

<text 
x="482" 
y="612" 
dx="0" 
class="s3_1"
>）</text>

<path d="M248.7,624.5l178.3,0l0,18.2l-178.3,0Z" class="g1_1" />
<text 
x="251" 
y="637" 
dx="0,0,0,0,0" 
class="s3_1"
>密度估计（</text>

<text 
x="308" 
y="637" 
dx="0,0,0,0,0,0,0,0,0,0,0,0,0,0,0,0,0,0" 
class="s4_1"
>Density Estimation</text>

<text 
x="412" 
y="637" 
dx="0" 
class="s3_1"
>）</text>

<path d="M248.7,649.3l368.3,0l0,18.1l-368.3,0Z" class="g1_1" />
<text 
x="251" 
y="662" 
dx="0,0,0,0,0,0,0,0,0,0,0,0" 
class="s3_1"
>神经网络模型（无监督）（</text>

<text 
x="389" 
y="662" 
dx="0,0,0,0,0,0,0,0,0,0,0,0,0,0,0,0,0,0,0,0,0,0,0,0,0,0,0,0,0,0,0,0,0,0,0,0" 
class="s4_1"
>Neural network models (unsupervised)</text>

<text 
x="602" 
y="662" 
dx="0" 
class="s3_1"
>）</text>

<path d="M131.2,727.7l97.4,0l0,19.7l-97.4,0Z" class="g1_1" />
<text 
x="133" 
y="742" 
dx="0,0,0,0,0,0,0" 
class="s2_1"
>模型选择和评估</text>

<path d="M271.5,679l449.7,0l0,18.1l-449.7,0Z" class="g1_1" />
<text 
x="273" 
y="692" 
dx="0,0,0,0,0,0,0,0,0,0,0,0,0" 
class="s3_1"
>交叉验证：评估估计器性能（</text>

<text 
x="424" 
y="692" 
dx="0,0,0,0,0,0,0,0,0,0,0,0,0,0,0,0,0,0,0,0,0,0,0,0,0,0,0,0,0,0,0,0,0,0,0,0,0,0,0,0,0,0,0,0,0,0,0,0,0,0" 
class="s4_1"
>Cross-validation: evaluating estimator performance</text>

<text 
x="707" 
y="692" 
dx="0" 
class="s3_1"
>）</text>

<path d="M271.5,703.7l376.9,0l0,18.2l-376.9,0Z" class="g1_1" />
<text 
x="273" 
y="716" 
dx="0,0,0,0,0,0,0,0,0,0" 
class="s3_1"
>调整估计器的超参数（</text>

<text 
x="389" 
y="716" 
dx="0,-0.9,0,0,0,0,0,0,0,0,0,0,0,0,0,0,0,0,0,0,0,0,0,0,0,0,0,0,0,0,0,0,0,0,0,0,0,0,0,0,0,0,0" 
class="s4_1"
>Tuning the hyper-parameters of an estimator</text>

<text 
x="634" 
y="716" 
dx="0" 
class="s3_1"
>）</text>

<path d="M271.5,728.5l470.1,0l0,18.1l-470.1,0Z" class="g1_1" />
<text 
x="273" 
y="741" 
dx="0,0,0,0,0,0,0,0,0,0,0,0,0" 
class="s3_1"
>模型评价：量化预测的质量（</text>

<text 
x="424" 
y="741" 
dx="0,0,0,0,0,0,0,0,0,0,0,0,0,0,0,0,0,0,0,0,0,0,0,0,0,0,0,0,0,0,0,0,0,0,0,0,0,0,0,0,0,0,0,0,0,0,0,0,0,0,0,0,0,0,0,0" 
class="s4_1"
>Model evaluation: quantifying the quality of predictions</text>

<text 
x="727" 
y="741" 
dx="0" 
class="s3_1"
>）</text>

<path d="M271.5,753.2l189.8,0l0,18.2l-189.8,0Z" class="g1_1" />
<text 
x="273" 
y="766" 
dx="0,0,0,0,0,0" 
class="s3_1"
>模型持久性（</text>

<text 
x="346" 
y="766" 
dx="0,0,0,0,0,0,0,0,0,0,0,0,0,0,0,0,0" 
class="s4_1"
>Model persistence</text>

<text 
x="447" 
y="766" 
dx="0" 
class="s3_1"
>）</text>

<path d="M271.5,778l485,0l0,18.1l-485,0Z" class="g1_1" />
<text 
x="273" 
y="791" 
dx="0,0,0,0,0,0,0,0,0,0,0,0,0,0,0" 
class="s3_1"
>验证曲线：绘制分数以评估模型（</text>

<text 
x="450" 
y="791" 
dx="0,-0.6,0,0,0,0,0,0,0,0,0,0,0,0,0,0,0,0,0,0,0,0,0,0,0,0,0,0,0,0,0,0,0,0,0,0,0,0,0,0,0,0,0,0,0,0,0,0,0,0,0,0,0" 
class="s4_1"
>Validation curves: plotting scores to evaluate models</text>

<text 
x="742" 
y="791" 
dx="0" 
class="s3_1"
>）</text>

<path d="M131.2,893.5l78.3,0l0,19.8l-78.3,0Z" class="g1_1" />
<text 
x="137" 
y="908" 
dx="0,0,0,0,0" 
class="s2_1"
>数据集转换</text>

<path d="M252.4,807.7l132,0l0,18.1l-132,0Z" class="g1_1" />
<text 
x="254" 
y="820" 
dx="0,0,0,0,0,0,0,0,0,0,0" 
class="s3_1"
>管道和特征：组合估计量</text>

<path d="M252.4,832.4l51.2,0l0,18.2l-51.2,0Z" class="g1_1" />
<text 
x="254" 
y="845" 
dx="0,0,0,0" 
class="s3_1"
>特征提取</text>

<path d="M252.4,857.2l62.7,0l0,18.1l-62.7,0Z" class="g1_1" />
<text 
x="254" 
y="870" 
dx="0,0,0,0,0" 
class="s3_1"
>预处理数据</text>

<path d="M252.4,881.9l62.7,0l0,18.2l-62.7,0Z" class="g1_1" />
<text 
x="254" 
y="895" 
dx="0,0,0,0,0" 
class="s3_1"
>无监督降维</text>

<path d="M252.4,906.7l51.2,0l0,18.1l-51.2,0Z" class="g1_1" />
<text 
x="254" 
y="919" 
dx="0,0,0,0" 
class="s3_1"
>随机投影</text>

<path d="M252.4,931.4l51.2,0l0,18.2l-51.2,0Z" class="g1_1" />
<text 
x="254" 
y="944" 
dx="0,0,0,0" 
class="s3_1"
>内核近似</text>

<path d="M252.4,956.2l132,0l0,18.1l-132,0Z" class="g1_1" />
<text 
x="254" 
y="969" 
dx="0,0,0,0,0,0,0,0,0,0,0" 
class="s3_1"
>成对度量，亲和度和内核</text>

<path d="M252.4,980.9l74.3,0l0,18.2l-74.3,0Z" class="g1_1" />
<text 
x="254" 
y="994" 
dx="0,0,0,0,0,0" 
class="s3_1"
>变换预测目标</text>

<path d="M131.2,1220.2l123.8,0l0,19.8l-123.8,0Z" class="g1_1" />
<text 
x="133" 
y="1235" 
dx="0,0,0,0,0,0,0,0,0" 
class="s2_1"
>数据集加载实用程序</text>

<path d="M297.9,1010.6l213.8,0l0,18.2l-213.8,0Z" class="g1_1" />
<text 
x="300" 
y="1023" 
dx="0,0,0,0,0" 
class="s3_1"
>通用数据集</text>

<text 
x="358" 
y="1023" 
dx="0,0,0" 
class="s4_1"
>API</text>

<text 
x="377" 
y="1023" 
dx="0" 
class="s3_1"
>（</text>

<text 
x="388" 
y="1023" 
dx="0,0,0,0,0,0,0,0,0,0,0,0,0,0,0,0,-0.4,0,0" 
class="s4_1"
>General dataset API</text>

<text 
x="497" 
y="1023" 
dx="0" 
class="s3_1"
>）</text>

<path d="M297.9,1035.4l155.6,0l0,18.1l-155.6,0Z" class="g1_1" />
<text 
x="300" 
y="1048" 
dx="0,0,0,0,0,0" 
class="s3_1"
>玩具数据集（</text>

<text 
x="369" 
y="1048" 
dx="0,-0.9,0,0,0,0,0,0,0,0,0,0" 
class="s4_1"
>Toy datasets</text>

<text 
x="439" 
y="1048" 
dx="0" 
class="s3_1"
>）</text>

<path d="M297.9,1060.1l158.4,0l0,18.2l-158.4,0Z" class="g1_1" />
<text 
x="300" 
y="1073" 
dx="0,0,0,0,0" 
class="s3_1"
>示例图像（</text>

<text 
x="358" 
y="1073" 
dx="0,0,0,0,0,0,0,0,0,0,0,0,0" 
class="s4_1"
>Sample images</text>

<text 
x="442" 
y="1073" 
dx="0" 
class="s3_1"
>）</text>

<path d="M297.9,1084.9l189.8,0l0,18.1l-189.8,0Z" class="g1_1" />
<text 
x="300" 
y="1098" 
dx="0,0,0,0,0,0" 
class="s3_1"
>样品发生器（</text>

<text 
x="369" 
y="1098" 
dx="0,0,0,0,0,0,0,0,0,0,0,0,0,0,0,0,0" 
class="s4_1"
>Sample generators</text>

<text 
x="473" 
y="1098" 
dx="0" 
class="s3_1"
>）</text>

<path d="M297.9,1109.6l388.7,0l0,18.2l-388.7,0Z" class="g1_1" />
<text 
x="300" 
y="1122" 
dx="0,0,0,0,0,0,0,0,0,0,0,0,0,0,0,0,0" 
class="s4_1"
>svmlight / libsvm</text>

<text 
x="394" 
y="1122" 
dx="0,0,0,0,0,0,0" 
class="s3_1"
>格式的数据集（</text>

<text 
x="474" 
y="1122" 
dx="0,0,0,0,0,0,0,0,0,0,0,0,0,0,0,0,0,0,0,0,0,0,0,0,0,0,0,0,0,0,0,0,0,0,0,0" 
class="s4_1"
>Datasets in svmlight / libsvm format</text>

<text 
x="672" 
y="1122" 
dx="0" 
class="s3_1"
>）</text>

<path d="M297.9,1134.4l291.8,0l0,18.1l-291.8,0Z" class="g1_1" />
<text 
x="300" 
y="1147" 
dx="0,0,0,0,0,0,0,0,0" 
class="s3_1"
>从外部数据集加载（</text>

<text 
x="404" 
y="1147" 
dx="0,0,0,0,0,0,0,0,0,0,0,0,0,0,0,0,0,0,0,0,0,0,0,0,0,0,0,0,0,0" 
class="s4_1"
>Loading from external datasets</text>

<text 
x="575" 
y="1147" 
dx="0" 
class="s3_1"
>）</text>

<path d="M297.9,1159.1l252.7,0l0,18.2l-252.7,0Z" class="g1_1" />
<text 
x="300" 
y="1172" 
dx="0,0,0,0,0,0,0,0" 
class="s4_1"
>Olivetti</text>

<text 
x="339" 
y="1172" 
dx="0,0,0,0,0" 
class="s3_1"
>面数据集（</text>

<text 
x="397" 
y="1172" 
dx="0,0,0,0,0,0,0,0,0,0,0,0,0,0,0,0,0,0,0,0,0,0,0,0,0,0" 
class="s4_1"
>The Olivetti faces dataset</text>

<text 
x="536" 
y="1172" 
dx="0" 
class="s3_1"
>）</text>

<path d="M297.9,1183.9l320.1,0l0,18.1l-320.1,0Z" class="g1_1" />
<text 
x="300" 
y="1197" 
dx="0,0" 
class="s4_1"
>20</text>

<text 
x="313" 
y="1197" 
dx="0,0,0,0,0,0,0,0,0,0" 
class="s3_1"
>个新闻组文本数据集（</text>

<text 
x="428" 
y="1197" 
dx="0,0,0,0,0,0,0,0,0,0,0,0,0,0,0,0,0,0,0,0,0,0,0,0,0,0,0,0,0,0" 
class="s4_1"
>The 20 newsgroups text dataset</text>

<text 
x="603" 
y="1197" 
dx="0" 
class="s3_1"
>）</text>

<path d="M297.9,1208.6l485,0l0,18.2l-485,0Z" class="g1_1" />
<text 
x="300" 
y="1221" 
dx="0" 
class="s3_1"
>从</text>

<text 
x="311" 
y="1221" 
dx="0,0,0,0,0,0,0,0,0,0" 
class="s4_1"
>mldata.org</text>

<text 
x="370" 
y="1221" 
dx="0,0,0,0,0,0,0,0,0" 
class="s3_1"
>存储库下载数据集（</text>

<text 
x="474" 
y="1221" 
dx="0,0,0,0,0,0,0,0,0,0,0,0,0,0,0,0,0,0,0,0,0,0,0,0,0,0,0,0,0,0,0,0,0,0,0,0,0,0,0,0,0,0,0,0,0,0,0,0,0,0,0" 
class="s4_1"
>Downloading datasets from the mldata.org repository</text>

<text 
x="768" 
y="1221" 
dx="0" 
class="s3_1"
>）</text>

<path d="M297.9,1233.4l490.6,0l0,18.1l-490.6,0Z" class="g1_1" />
<text 
x="300" 
y="1246" 
dx="0,0,0,0,0,0,0,0,0,0,0,0,0,0,0" 
class="s3_1"
>野生面部识别数据集中的标记面（</text>

<text 
x="473" 
y="1246" 
dx="0,0,0,0,0,0,0,0,0,0,0,0,0,0,0,0,0,0,0,0,0,0,0,0,0,0,-0.1,0,0,0,0,0,0,0,0,0,0,0,0,0,0,0,0,0,0,0,0,0,0,0,0,0,0,0" 
class="s4_1"
>The Labeled Faces in the Wild face recognition dataset</text>

<text 
x="774" 
y="1246" 
dx="0" 
class="s3_1"
>）</text>

<path d="M297.9,1258.1l214.9,0l0,18.2l-214.9,0Z" class="g1_1" />
<text 
x="300" 
y="1271" 
dx="0,0" 
class="s3_1"
>森林</text>

<text 
x="323" 
y="1271" 
dx="0,0,0,0,0,0,0,0,0,0" 
class="s4_1"
>covertypes</text>

<text 
x="384" 
y="1271" 
dx="0" 
class="s3_1"
>（</text>

<text 
x="399" 
y="1271" 
dx="0,0,0,0,0,0,0,0,0,0,0,0,0,0,0,0,0" 
class="s4_1"
>Forest covertypes</text>

<text 
x="498" 
y="1271" 
dx="0" 
class="s3_1"
>）</text>

<path d="M297.9,1282.9l168,0l0,18.1l-168,0Z" class="g1_1" />
<text 
x="300" 
y="1296" 
dx="0,0,0,0" 
class="s4_1"
>RCV1</text>

<text 
x="331" 
y="1296" 
dx="0,0,0,0" 
class="s3_1"
>数据集（</text>

<text 
x="377" 
y="1296" 
dx="0,0,0,0,0,0,0,0,0,0,0,0" 
class="s4_1"
>RCV1 dataset</text>

<text 
x="451" 
y="1296" 
dx="0" 
class="s3_1"
>）</text>

<path d="M297.9,1307.6l280.3,0l0,18.2l-280.3,0Z" class="g1_1" />
<text 
x="300" 
y="1320" 
dx="0,0,0,0,0,0,0,0,0" 
class="s3_1"
>波士顿房价数据集（</text>

<text 
x="404" 
y="1320" 
dx="0,0,0,0,0,0,0,0,0,0,0,0,0,0,0,0,0,0,0,0,0,0,0,0,0,0,0" 
class="s4_1"
>Boston House Prices dataset</text>

<text 
x="564" 
y="1320" 
dx="0" 
class="s3_1"
>）</text>

<path d="M297.9,1332.4l453.5,0l0,18.1l-453.5,0Z" class="g1_1" />
<text 
x="300" 
y="1345" 
dx="0,0,0,0,0,0,0,0,0,0,0,0,0,0,0" 
class="s3_1"
>乳腺癌威斯康星（诊断）数据库（</text>

<text 
x="473" 
y="1345" 
dx="0,0,0,0,0,0,0,0,0,0,0,0,0,0,0,-0.1,0,0,0,0,0,0,0,0,0,0,0,0,0,0,0,0,0,0,0,0,0,0,0,0,0,0,0,0,0" 
class="s4_1"
>Breast Cancer Wisconsin (Diagnostic) Database</text>

<text 
x="737" 
y="1345" 
dx="0" 
class="s3_1"
>）</text>

<path d="M297.9,1357.1l189.1,0l0,18.2l-189.1,0Z" class="g1_1" />
<text 
x="300" 
y="1370" 
dx="0,0,0,0,0,0,0" 
class="s3_1"
>糖尿病数据集（</text>

<text 
x="381" 
y="1370" 
dx="0,0,0,0,0,0,0,0,0,0,0,0,0,0,0,0" 
class="s4_1"
>Diabetes dataset</text>

<text 
x="473" 
y="1370" 
dx="0" 
class="s3_1"
>）</text>

<path d="M297.9,1381.9l444.5,0l0,18.1l-444.5,0Z" class="g1_1" />
<text 
x="300" 
y="1395" 
dx="0,0,0,0,0,0,0,0,0,0,0,0,0" 
class="s3_1"
>手写数字数据集的光学识别（</text>

<text 
x="450" 
y="1395" 
dx="0,0,0,0,0,0,0,0,0,0,0,0,0,0,0,0,0,0,0,0,0,0,0,0,0,0,0,0,0,0,0,0,0,0,0,0,0,0,0,0,0,0,0,0,0,0,0,0,0,0" 
class="s4_1"
>Optical Recognition of Handwritten Digits Data Set</text>

<text 
x="728" 
y="1395" 
dx="0" 
class="s3_1"
>）</text>

<path d="M297.9,1406.6l218.7,0l0,18.2l-218.7,0Z" class="g1_1" />
<text 
x="300" 
y="1419" 
dx="0,0,0,0,0,0,0,0" 
class="s3_1"
>虹膜植物数据库（</text>

<text 
x="392" 
y="1419" 
dx="0,0,0,0,0,0,0,0,0,0,0,0,0,0,0,0,0,0,0,0" 
class="s4_1"
>Iris Plants Database</text>

<text 
x="502" 
y="1419" 
dx="0" 
class="s3_1"
>）</text>

<path d="M297.9,1431.4l214.2,0l0,18.1l-214.2,0Z" class="g1_1" />
<text 
x="300" 
y="1444" 
dx="0,0,0,0,0,0,0,0,0" 
class="s4_1"
>Linnerrud</text>

<text 
x="354" 
y="1444" 
dx="0,0,0,0" 
class="s3_1"
>数据集（</text>

<text 
x="400" 
y="1444" 
dx="0,0,0,0,0,0,0,0,0,0,0,0,0,0,0,0,0" 
class="s4_1"
>Linnerrud dataset</text>

<text 
x="498" 
y="1444" 
dx="0" 
class="s3_1"
>）</text>

<path d="M131.2,1458.6l176.6,0l0,19.8l-176.6,0Z" class="g1_1" />
<text 
x="133" 
y="1473" 
dx="0,0,0,0,0,0,0,0,0,0,0,0,0" 
class="s2_1"
>计算规模的策略：更大的数据</text>

<path d="M350.7,1459.4l425.3,0l0,18.2l-425.3,0Z" class="g1_1" />
<text 
x="353" 
y="1472" 
dx="0,0,0,0,0,0,0,0,0,0,0,0" 
class="s3_1"
>使用核外学习来扩展实例（</text>

<text 
x="491" 
y="1472" 
dx="0,0,0,0,0,0,0,0,0,0,0,0,0,0,0,0,0,0,0,0,0,0,0,0,0,0,0,0,0,0,0,0,0,0,0,0,0,0,0,0,0,0,0,0,0,0,0,0,0" 
class="s4_1"
>Scaling with instances using out-of-core learning</text>

<text 
x="761" 
y="1472" 
dx="0" 
class="s3_1"
>）</text>

<path d="M131.2,1511.4l57.8,0l0,19.8l-57.8,0Z" class="g1_1" />
<text 
x="133" 
y="1526" 
dx="0,0,0,0" 
class="s2_1"
>计算性能</text>

<path d="M231.9,1487.5l177.6,0l0,18.1l-177.6,0Z" class="g1_1" />
<text 
x="234" 
y="1500" 
dx="0,0,0,0,0" 
class="s3_1"
>预测延迟（</text>

<text 
x="292" 
y="1500" 
dx="0,0,0,0,0,0,0,0,0,0,0,0,0,0,0,0,0,0" 
class="s4_1"
>Prediction Latency</text>

<text 
x="395" 
y="1500" 
dx="0" 
class="s3_1"
>）</text>

<path d="M231.9,1512.2l210.3,0l0,18.2l-210.3,0Z" class="g1_1" />
<text 
x="234" 
y="1525" 
dx="0,0,0,0,0,0" 
class="s3_1"
>预测吞吐量（</text>

<text 
x="303" 
y="1525" 
dx="0,0,0,0,0,0,0,0,0,0,0,0,0,0,0,0,0,0,0,0,0" 
class="s4_1"
>Prediction Throughput</text>

<text 
x="428" 
y="1525" 
dx="0" 
class="s3_1"
>）</text>

<path d="M231.9,1537l169.7,0l0,18.1l-169.7,0Z" class="g1_1" />
<text 
x="234" 
y="1550" 
dx="0,0,0,0,0,0" 
class="s3_1"
>技巧和窍门（</text>

<text 
x="303" 
y="1550" 
dx="0,-0.2,0,0,0,0,0,0,0,0,-0.6,0,0,0,0" 
class="s4_1"
>Tips and Tricks</text>

<text 
x="387" 
y="1550" 
dx="0" 
class="s3_1"
>）</text>



<!-- Any embedded fonts defined here -->
<style type="text/css" ><![CDATA[

@font-face {
	font-family: PingFangTC-Semibold_7r;
	src: url("fonts/PingFangTC-Semibold_7r.woff") format("woff");
}

@font-face {
	font-family: Arial-BoldMT_3u;
	src: url("fonts/Arial-BoldMT_3u.woff") format("woff");
}

]]></style>

</svg>
